PathFileType	4	(X/Y/Z)	C:\Users\italobelli\Desktop\GitHub\PTbot_officialCBL\Personal_Results\SHRUG03_noisy2.trc
DataRate	CameraRate	NumFrames	NumMarkers	Units	OrigDataRate	OrigDataStartFrame	OrigNumFrames
110.888889	110.888889	29	9	m	110.888889	126	500
Frame#	Time		gu		centelbow		EpL		centpxt8		centijc7		ts		aa		ai		ij
			X1	Y1	Z1	X2	Y2	Z2	X3	Y3	Z3	X4	Y4	Z4	X5	Y5	Z5	X6	Y6	Z6	X7	Y7	Z7	X8	Y8	Z8	X9	Y9	Z9

126	1.1273	-0.067453	0.025047	0.16183	-0.13256	-0.22233	0.21262	-0.11066	-0.21687	0.23559	-0.046816	-0.15316	-0.008669	-0.046816	0.031938	-0.008669	-0.12657	0.054931	0.0516	-0.089549	0.068085	0.16414	-0.15168	-0.051873	0.076532	0	0	0
127	1.1363	-0.067358	0.025637	0.16182	-0.13196	-0.22163	0.2132	-0.11003	-0.2161	0.23612	-0.046816	-0.15316	-0.008669	-0.046816	0.031938	-0.008669	-0.12658	0.054949	0.051501	-0.089474	0.068618	0.16394	-0.15145	-0.051764	0.076864	0	0	0
128	1.1453	-0.067265	0.026228	0.1618	-0.13132	-0.22092	0.21379	-0.10937	-0.21532	0.23665	-0.046816	-0.15316	-0.008669	-0.046816	0.031938	-0.008669	-0.12658	0.054966	0.051402	-0.0894	0.069149	0.16373	-0.15122	-0.051658	0.077201	0	0	0
129	1.1543	-0.067173	0.026819	0.16179	-0.13066	-0.22022	0.2144	-0.10867	-0.21454	0.23721	-0.046816	-0.15316	-0.008669	-0.046816	0.031938	-0.008669	-0.12659	0.054983	0.051303	-0.089329	0.069678	0.16352	-0.15099	-0.051554	0.077543	0	0	0
130	1.1633	-0.067083	0.027412	0.16178	-0.12998	-0.21952	0.21503	-0.10795	-0.21376	0.23777	-0.046816	-0.15316	-0.008669	-0.046816	0.031938	-0.008669	-0.1266	0.054999	0.051204	-0.089259	0.070205	0.16331	-0.15076	-0.051452	0.07789	0	0	0
131	1.1723	-0.066993	0.028004	0.16176	-0.12927	-0.21881	0.21566	-0.10721	-0.21297	0.23835	-0.046816	-0.15316	-0.008669	-0.046816	0.031938	-0.008669	-0.1266	0.055015	0.051104	-0.089192	0.070729	0.16309	-0.15052	-0.051353	0.07824	0	0	0
132	1.1814	-0.066906	0.028597	0.16175	-0.12854	-0.2181	0.21631	-0.10645	-0.21218	0.23894	-0.046816	-0.15316	-0.008669	-0.046816	0.031938	-0.008669	-0.12661	0.05503	0.051005	-0.089127	0.07125	0.16288	-0.15029	-0.051256	0.078594	0	0	0
133	1.1904	-0.066819	0.029189	0.16175	-0.12779	-0.2174	0.21697	-0.10566	-0.21139	0.23954	-0.046816	-0.15316	-0.008669	-0.046816	0.031938	-0.008669	-0.12662	0.055045	0.050907	-0.089065	0.071769	0.16266	-0.15005	-0.051161	0.078952	0	0	0
134	1.1994	-0.066735	0.02978	0.16174	-0.12702	-0.21669	0.21763	-0.10486	-0.2106	0.24014	-0.046816	-0.15316	-0.008669	-0.046816	0.031938	-0.008669	-0.12663	0.05506	0.050808	-0.089004	0.072284	0.16244	-0.14981	-0.051068	0.079312	0	0	0
135	1.2084	-0.066651	0.030371	0.16173	-0.12623	-0.21598	0.21831	-0.10404	-0.20981	0.24076	-0.046816	-0.15316	-0.008669	-0.046816	0.031938	-0.008669	-0.12663	0.055073	0.05071	-0.088945	0.072795	0.16222	-0.14957	-0.050977	0.079673	0	0	0
136	1.2174	-0.06657	0.03096	0.16173	-0.12543	-0.21528	0.21899	-0.10321	-0.20902	0.24137	-0.046816	-0.15316	-0.008669	-0.046816	0.031938	-0.008669	-0.12664	0.055087	0.050611	-0.088889	0.073304	0.162	-0.14933	-0.050889	0.080037	0	0	0
137	1.2265	-0.06649	0.031547	0.16172	-0.12462	-0.21458	0.21968	-0.10236	-0.20824	0.242	-0.046816	-0.15316	-0.008669	-0.046816	0.031938	-0.008669	-0.12665	0.0551	0.050514	-0.088835	0.073808	0.16178	-0.14909	-0.050802	0.080401	0	0	0
138	1.2355	-0.066412	0.032133	0.16172	-0.1238	-0.21387	0.22036	-0.1015	-0.20745	0.24262	-0.046816	-0.15316	-0.008669	-0.046816	0.031938	-0.008669	-0.12666	0.055112	0.050416	-0.088783	0.074308	0.16156	-0.14885	-0.050718	0.080767	0	0	0
139	1.2445	-0.066335	0.032716	0.16172	-0.12297	-0.21317	0.22106	-0.10064	-0.20666	0.24325	-0.046816	-0.15316	-0.008669	-0.046816	0.031938	-0.008669	-0.12667	0.055124	0.050319	-0.088733	0.074804	0.16134	-0.14861	-0.050635	0.081132	0	0	0
140	1.2535	-0.06626	0.033296	0.16172	-0.12214	-0.21248	0.22175	-0.099768	-0.20588	0.24388	-0.046816	-0.15316	-0.008669	-0.046816	0.031938	-0.008669	-0.12668	0.055136	0.050223	-0.088685	0.075296	0.16113	-0.14837	-0.050555	0.081497	0	0	0
141	1.2625	-0.066188	0.033873	0.16172	-0.1213	-0.21178	0.22244	-0.098893	-0.2051	0.24451	-0.046816	-0.15316	-0.008669	-0.046816	0.031938	-0.008669	-0.12669	0.055147	0.050127	-0.08864	0.075783	0.16091	-0.14814	-0.050476	0.081861	0	0	0
142	1.2715	-0.066117	0.034447	0.16172	-0.12046	-0.21109	0.22313	-0.098016	-0.20432	0.24514	-0.046816	-0.15316	-0.008669	-0.046816	0.031938	-0.008669	-0.12671	0.055158	0.050032	-0.088597	0.076266	0.16069	-0.1479	-0.0504	0.082223	0	0	0
143	1.2806	-0.066048	0.035018	0.16173	-0.11961	-0.2104	0.22382	-0.097138	-0.20355	0.24576	-0.046816	-0.15316	-0.008669	-0.046816	0.031938	-0.008669	-0.12672	0.055168	0.049937	-0.088556	0.076743	0.16047	-0.14767	-0.050325	0.082584	0	0	0
144	1.2896	-0.065981	0.035584	0.16173	-0.11877	-0.20972	0.2245	-0.096262	-0.20279	0.24638	-0.046816	-0.15316	-0.008669	-0.046816	0.031938	-0.008669	-0.12673	0.055178	0.049843	-0.088517	0.077215	0.16026	-0.14745	-0.050252	0.082942	0	0	0
145	1.2986	-0.065916	0.036146	0.16174	-0.11793	-0.20905	0.22518	-0.09539	-0.20203	0.247	-0.046816	-0.15316	-0.008669	-0.046816	0.031938	-0.008669	-0.12674	0.055188	0.049749	-0.088481	0.077682	0.16005	-0.14722	-0.050181	0.083297	0	0	0
146	1.3076	-0.065853	0.036704	0.16174	-0.1171	-0.20837	0.22585	-0.094523	-0.20127	0.24761	-0.046816	-0.15316	-0.008669	-0.046816	0.031938	-0.008669	-0.12675	0.055197	0.049657	-0.088446	0.078143	0.15984	-0.147	-0.050112	0.083649	0	0	0
147	1.3166	-0.065792	0.037256	0.16175	-0.11628	-0.20771	0.22651	-0.093664	-0.20052	0.24821	-0.046816	-0.15316	-0.008669	-0.046816	0.031938	-0.008669	-0.12677	0.055206	0.049565	-0.088414	0.078598	0.15963	-0.14678	-0.050045	0.083998	0	0	0
148	1.3257	-0.065734	0.037804	0.16176	-0.11546	-0.20705	0.22716	-0.092814	-0.19978	0.24881	-0.046816	-0.15316	-0.008669	-0.046816	0.031938	-0.008669	-0.12678	0.055214	0.049474	-0.088384	0.079047	0.15943	-0.14657	-0.049979	0.084341	0	0	0
149	1.3347	-0.065678	0.038345	0.16177	-0.11465	-0.20639	0.2278	-0.091976	-0.19904	0.24939	-0.046816	-0.15316	-0.008669	-0.046816	0.031938	-0.008669	-0.12679	0.055222	0.049384	-0.088357	0.07949	0.15923	-0.14636	-0.049915	0.08468	0	0	0
150	1.3437	-0.065624	0.038881	0.16179	-0.11386	-0.20574	0.22843	-0.091152	-0.19832	0.24996	-0.046816	-0.15316	-0.008669	-0.046816	0.031938	-0.008669	-0.1268	0.05523	0.049295	-0.088332	0.079927	0.15903	-0.14615	-0.049853	0.085014	0	0	0
151	1.3527	-0.065572	0.03941	0.1618	-0.11308	-0.2051	0.22904	-0.090343	-0.1976	0.25052	-0.046816	-0.15316	-0.008669	-0.046816	0.031938	-0.008669	-0.12682	0.055237	0.049207	-0.088309	0.080356	0.15884	-0.14596	-0.049792	0.085342	0	0	0
152	1.3617	-0.065523	0.039933	0.16182	-0.11232	-0.20447	0.22964	-0.089552	-0.19689	0.25107	-0.046816	-0.15316	-0.008669	-0.046816	0.031938	-0.008669	-0.12683	0.055244	0.04912	-0.088288	0.080779	0.15865	-0.14576	-0.049733	0.085663	0	0	0
153	1.3707	-0.065476	0.040449	0.16183	-0.11157	-0.20385	0.23022	-0.08878	-0.1962	0.2516	-0.046816	-0.15316	-0.008669	-0.046816	0.031938	-0.008669	-0.12685	0.055251	0.049034	-0.08827	0.081195	0.15846	-0.14558	-0.049676	0.085977	0	0	0
154	1.3798	-0.065431	0.040958	0.16185	-0.11085	-0.20323	0.23079	-0.08803	-0.19551	0.25211	-0.046816	-0.15316	-0.008669	-0.046816	0.031938	-0.008669	-0.12686	0.055258	0.048949	-0.088254	0.081604	0.15828	-0.1454	-0.04962	0.086285	0	0	0
